<svg xmlns="http://www.w3.org/2000/svg" fill="none" viewBox="0 0 1071 872" height="872" width="1071">
<g clip-path="url(#clip0_1_27929)">
<path stroke-linejoin="round" stroke-linecap="round" stroke-width="2" stroke="black" fill="white" d="M852.4 173.02C853.45 169.16 868.83 114.98 898.56 115.46C900.42 115.49 902.14 115.65 903.73 115.92C927.59 120.02 923.05 149.65 941.31 149.65C960.78 149.65 964.3 109.3 988.2 109.3C1009.86 109.3 996 153.09 1014.52 153.38C1033.04 153.67 1039.49 141.16 1049.96 141.16C1060.43 141.16 1060.12 144.54 1069.23 172.18L852.4 173.02Z"></path>
<path stroke-linejoin="round" stroke-linecap="round" stroke-width="2" stroke="black" fill="white" d="M976.915 137.296C978.102 133.431 977.54 129.83 975.661 129.253C973.781 128.676 971.295 131.341 970.109 135.206C968.922 139.07 969.484 142.671 971.363 143.248C973.243 143.825 975.728 141.16 976.915 137.296Z"></path>
<path stroke-linejoin="round" stroke-linecap="round" stroke-width="2" stroke="black" fill="white" d="M992.585 137.286C993.772 133.421 993.21 129.82 991.33 129.243C989.451 128.666 986.965 131.331 985.779 135.196C984.592 139.06 985.154 142.661 987.033 143.238C988.913 143.815 991.398 141.15 992.585 137.286Z"></path>
<path stroke-linejoin="round" stroke-linecap="round" stroke-width="2" stroke="black" fill="black" d="M987.87 138.55C989.052 138.55 990.01 137.591 990.01 136.41C990.01 135.228 989.052 134.27 987.87 134.27C986.688 134.27 985.73 135.228 985.73 136.41C985.73 137.591 986.688 138.55 987.87 138.55Z"></path>
<path stroke-linejoin="round" stroke-linecap="round" stroke-width="2" stroke="black" fill="black" d="M972.15 138.55C973.332 138.55 974.29 137.591 974.29 136.41C974.29 135.228 973.332 134.27 972.15 134.27C970.968 134.27 970.01 135.228 970.01 136.41C970.01 137.591 970.968 138.55 972.15 138.55Z"></path>
<path stroke-linejoin="round" stroke-linecap="round" stroke-width="2" stroke="black" fill="#BAEDFF" d="M983.088 156.816C984.193 153.663 983.34 150.494 981.183 149.737C979.025 148.981 976.38 150.924 975.274 154.077C974.169 157.23 975.022 160.399 977.179 161.156C979.337 161.912 981.982 159.969 983.088 156.816Z"></path>
<path stroke-linejoin="round" stroke-linecap="round" stroke-width="2" stroke="black" fill="white" d="M585.43 87.09C586.5 83.18 602.09 28.24 632.24 28.72C634.12 28.75 635.87 28.91 637.48 29.19C661.67 33.34 657.07 63.39 675.58 63.39C695.33 63.39 702.73 1 726.97 1C748.93 1 731.03 66.88 749.82 67.17C768.6 67.46 774.46 44.34 785.07 44.34C795.68 44.34 796.05 58.21 805.3 86.24L585.43 87.09Z"></path>
<path stroke-linejoin="round" stroke-linecap="round" stroke-width="2" stroke="black" fill="#FF9331" d="M853.16 49.7304L863.06 40.6104L866.46 53.6404C869.27 64.3904 879.85 71.2003 890.8 69.2803L904.06 66.9604L899.88 79.7604C896.43 90.3204 901.65 101.77 911.9 106.08L924.31 111.3L913.87 119.8C905.25 126.82 903.46 139.27 909.75 148.44L917.37 159.54L903.99 161.05C892.95 162.3 884.71 171.81 885.04 182.91L885.45 196.37L873.38 190.41C863.42 185.49 851.34 189.03 845.62 198.56L838.69 210.1L831.76 198.56C826.04 189.03 813.96 185.49 804 190.41L791.93 196.37L792.34 182.91C792.68 171.8 784.44 162.29 773.39 161.05L760.01 159.54L767.63 148.44C773.92 139.28 772.13 126.82 763.51 119.8L753.07 111.3L765.48 106.08C775.72 101.77 780.95 90.3304 777.5 79.7604L773.32 66.9604L786.58 69.2803C797.53 71.1903 808.11 64.3904 810.92 53.6404L814.32 40.6104L824.22 49.7304C832.39 57.2604 844.98 57.2604 853.15 49.7304H853.16Z"></path>
<path stroke-linejoin="round" stroke-linecap="round" stroke-width="2" stroke="black" fill="#EEFF36" d="M838.7 177.52C867.507 177.52 890.86 154.167 890.86 125.36C890.86 96.553 867.507 73.2002 838.7 73.2002C809.893 73.2002 786.54 96.553 786.54 125.36C786.54 154.167 809.893 177.52 838.7 177.52Z"></path>
<path stroke-linejoin="round" stroke-linecap="round" stroke-width="2" stroke="black" d="M863.31 99.2807C861.32 95.3607 857.25 92.6807 852.55 92.6807C849.74 92.6807 847.15 93.6407 845.1 95.2507"></path>
<path stroke-linejoin="round" stroke-linecap="round" stroke-width="2" stroke="black" d="M814.08 99.2807C816.07 95.3607 820.14 92.6807 824.84 92.6807C827.65 92.6807 830.24 93.6407 832.29 95.2507"></path>
<path stroke-linejoin="round" stroke-linecap="round" stroke-width="2" stroke="black" fill="white" d="M850.97 126.281C855.93 126.281 859.95 121.034 859.95 114.561C859.95 108.088 855.93 102.841 850.97 102.841C846.011 102.841 841.99 108.088 841.99 114.561C841.99 121.034 846.011 126.281 850.97 126.281Z"></path>
<path stroke-linejoin="round" stroke-linecap="round" stroke-width="2" stroke="black" fill="black" d="M848.99 109.251C847.53 109.251 845.55 111.441 845.1 114.031L850.14 117.381L844.75 121.571C845.57 123.651 847.49 125.511 848.98 125.511C851.24 125.511 853.07 121.871 853.07 117.381C853.07 112.891 851.24 109.251 848.98 109.251H848.99Z"></path>
<path stroke-linejoin="round" stroke-linecap="round" stroke-width="2" stroke="black" fill="white" d="M826.43 125.521C831.39 125.521 835.41 120.274 835.41 113.801C835.41 107.328 831.39 102.081 826.43 102.081C821.471 102.081 817.45 107.328 817.45 113.801C817.45 120.274 821.471 125.521 826.43 125.521Z"></path>
<path stroke-linejoin="round" stroke-linecap="round" stroke-width="2" stroke="black" fill="black" d="M824.45 108.491C822.99 108.491 821.01 110.681 820.56 113.271L825.6 116.621L820.21 120.811C821.03 122.891 822.95 124.751 824.44 124.751C826.7 124.751 828.53 121.111 828.53 116.621C828.53 112.131 826.7 108.491 824.44 108.491H824.45Z"></path>
<path stroke-linejoin="round" stroke-linecap="round" stroke-width="2" stroke="black" fill="#F0A1D6" d="M838.7 135.48C842.207 135.48 845.05 133.421 845.05 130.88C845.05 128.34 842.207 126.28 838.7 126.28C835.193 126.28 832.35 128.34 832.35 130.88C832.35 133.421 835.193 135.48 838.7 135.48Z"></path>
<path stroke-linejoin="round" stroke-linecap="round" stroke-width="2" stroke="black" d="M856.389 153.566C857.298 147.71 854.429 142.403 849.981 141.713C845.533 141.023 841.191 145.211 840.282 151.067C839.373 156.923 842.242 162.229 846.69 162.92C851.138 163.61 855.481 159.422 856.389 153.566Z"></path>
<path stroke-linejoin="round" stroke-linecap="round" stroke-width="2" stroke="black" fill="black" d="M851.369 152.787C851.891 149.425 850.956 146.489 849.28 146.229C847.605 145.969 845.824 148.484 845.302 151.845C844.78 155.207 845.716 158.143 847.391 158.403C849.067 158.663 850.848 156.149 851.369 152.787Z"></path>
<path stroke-linejoin="round" stroke-linecap="round" stroke-width="2" stroke="black" d="M838.61 141.161C839.5 142.991 840.86 144.341 842.69 145.201"></path>
<path stroke-linejoin="round" stroke-linecap="round" stroke-width="2" stroke="black" d="M837.58 162.981C839.2 161.391 840.79 160.441 842.38 160.271"></path>
<path stroke-linejoin="round" stroke-linecap="round" stroke-width="2" stroke="black" fill="#FF9231" d="M833.18 386.29C833.18 386.29 833.18 386.32 833.18 386.34V386.29Z"></path>
<path stroke-linejoin="round" stroke-linecap="round" stroke-width="2" stroke="black" fill="#FF9231" d="M833.18 566.1V386.38C833.18 388.05 834.28 389.72 836.49 391C840.92 393.56 848.14 393.55 852.6 390.97C854.82 389.69 855.94 388.01 855.96 386.33V566.14C855.95 570.22 833.17 570.18 833.18 566.09V566.1Z"></path>
<path stroke-linejoin="round" stroke-linecap="round" stroke-width="2" stroke="black" fill="#FF9231" d="M844.603 392.924C850.894 392.89 855.977 389.917 855.957 386.283C855.938 382.649 850.822 379.731 844.532 379.765C838.242 379.799 833.158 382.772 833.178 386.406C833.197 390.04 838.313 392.958 844.603 392.924Z"></path>
<path stroke-linejoin="round" stroke-linecap="round" stroke-width="2" stroke="black" fill="#FF9231" d="M851.16 480.15C849.61 480.15 848.06 479.61 846.81 478.51C844.08 476.11 843.81 471.94 846.21 469.21L860.53 452.93C868.46 443.92 872.82 432.35 872.82 420.34V333.24C872.82 329.6 875.77 326.65 879.41 326.65C883.05 326.65 886 329.6 886 333.24V420.34C886 435.55 880.47 450.21 870.43 461.63L856.11 477.91C854.81 479.39 852.99 480.15 851.16 480.15Z"></path>
<path stroke-linejoin="round" stroke-linecap="round" stroke-width="2" stroke="black" fill="#45E464" d="M924.88 298.92C928.86 292.16 931.15 284.29 931.15 275.87C931.15 250.72 910.76 230.34 885.62 230.34C872.73 230.34 861.09 235.71 852.81 244.32C846.06 234.09 834.46 227.33 821.29 227.33C800.44 227.33 783.54 244.23 783.54 265.08C783.54 265.15 783.54 265.22 783.54 265.3C782.21 265.16 780.87 265.08 779.51 265.08C758.66 265.08 741.76 281.98 741.76 302.83C741.76 311.5 744.69 319.48 749.61 325.86C745.83 332.5 743.65 340.18 743.65 348.37C743.65 373.52 764.04 393.9 789.18 393.9C792.61 393.9 795.95 393.51 799.17 392.79C807.51 403.21 820.33 409.88 834.72 409.88C855.51 409.88 873.02 395.95 878.48 376.92C884.54 379.9 891.35 381.58 898.56 381.58C923.71 381.58 944.09 361.19 944.09 336.05C944.09 320.72 936.51 307.17 924.89 298.92H924.88Z"></path>
<path stroke-linejoin="round" stroke-linecap="round" stroke-width="2" stroke="black" d="M799.16 392.79C791.81 381.87 789.43 362.33 795.26 349.89"></path>
<path fill="#45E464" d="M894.95 345.62C901.32 339.83 905.32 331.47 905.32 322.18C905.32 304.69 891.14 290.51 873.65 290.51C870.4 290.51 867.27 291 864.32 291.91C861.25 282.1 852.09 274.99 841.27 274.99C835.13 274.99 829.52 277.28 825.26 281.06"></path>
<path stroke-linejoin="round" stroke-linecap="round" stroke-width="2" stroke="black" d="M894.95 345.62C901.32 339.83 905.32 331.47 905.32 322.18C905.32 304.69 891.14 290.51 873.65 290.51C870.4 290.51 867.27 291 864.32 291.91C861.25 282.1 852.09 274.99 841.27 274.99C835.13 274.99 829.52 277.28 825.26 281.06"></path>
<path stroke-linejoin="round" stroke-linecap="round" stroke-width="2" stroke="black" fill="white" d="M61.53 224.37C62.54 220.69 83.49 183.98 109.63 183.85C135.77 183.72 128.97 202.06 146.39 202.06C164.98 202.06 171.95 143.33 194.77 143.33C215.44 143.33 198.6 205.34 216.28 205.61C233.96 205.88 239.47 184.12 249.46 184.12C259.45 184.12 259.8 197.18 268.5 223.56L61.54 224.36L61.53 224.37Z"></path>
<path stroke-linejoin="round" stroke-linecap="round" stroke-width="2" stroke="black" fill="#9D85F2" d="M625.83 585.1H432.3L454.82 567.98H603.31L625.83 585.1Z"></path>
<path stroke-linejoin="round" stroke-linecap="round" stroke-width="2" stroke="black" fill="#9D85F2" d="M623 584.53H435.13C431.087 584.53 427.81 587.805 427.81 591.845C427.81 595.885 431.087 599.16 435.13 599.16H623C627.043 599.16 630.32 595.885 630.32 591.845C630.32 587.805 627.043 584.53 623 584.53Z"></path>
<path stroke-linejoin="round" stroke-linecap="round" stroke-width="2" stroke="black" fill="#9D85F2" d="M603.31 432.72H454.82V567.98H603.31V432.72Z"></path>
<path stroke-linejoin="round" stroke-linecap="round" stroke-width="2" stroke="black" fill="#9D85F2" d="M780.26 120.75H277.87C264.632 120.75 253.9 131.482 253.9 144.72V472.5C253.9 485.738 264.632 496.47 277.87 496.47H780.26C793.498 496.47 804.23 485.738 804.23 472.5V144.72C804.23 131.482 793.498 120.75 780.26 120.75Z"></path>
<path stroke-linejoin="round" stroke-linecap="round" stroke-width="2" stroke="black" fill="#E2F8FF" d="M788.38 140.57V476.65C788.38 478.84 786.6 480.62 784.41 480.62L273.72 480.62C271.53 480.62 269.75 478.84 269.75 476.65V140.57C269.75 138.38 271.53 136.6 273.72 136.6L784.42 136.6C786.61 136.6 788.39 138.38 788.39 140.57H788.38Z"></path>
<path stroke-linejoin="round" stroke-linecap="round" stroke-width="2" stroke="black" fill="black" d="M751.42 202.49H302.03C298.07 202.49 293.11 199.65 290.95 196.68C289.54 194.73 290.17 193.23 290.17 190.63C290.17 184.08 295.48 178.77 302.03 178.77H755.4C761.95 178.77 763.41 195.05 763.41 195.05C763.41 195.05 759.84 202.49 751.42 202.49Z"></path>
<path stroke-linejoin="round" stroke-linecap="round" stroke-width="2" stroke="black" fill="white" d="M753.29 177.01H299.92C293.37 177.01 288.06 182.32 288.06 188.87C288.06 195.42 293.37 200.73 299.92 200.73H753.29C759.84 200.73 765.15 195.42 765.15 188.87C765.15 182.32 759.84 177.01 753.29 177.01Z"></path>
<path stroke-linejoin="round" stroke-linecap="round" stroke-width="2" stroke="black" fill="black" d="M299.83 164.03C302.669 164.03 304.97 161.729 304.97 158.89C304.97 156.051 302.669 153.75 299.83 153.75C296.991 153.75 294.69 156.051 294.69 158.89C294.69 161.729 296.991 164.03 299.83 164.03Z"></path>
<path stroke-linejoin="round" stroke-linecap="round" stroke-width="2" stroke="black" fill="black" d="M326.18 164.03C329.019 164.03 331.32 161.729 331.32 158.89C331.32 156.051 329.019 153.75 326.18 153.75C323.341 153.75 321.04 156.051 321.04 158.89C321.04 161.729 323.341 164.03 326.18 164.03Z"></path>
<path stroke-linejoin="round" stroke-linecap="round" stroke-width="2" stroke="black" fill="black" d="M352.52 164.03C355.359 164.03 357.66 161.729 357.66 158.89C357.66 156.051 355.359 153.75 352.52 153.75C349.681 153.75 347.38 156.051 347.38 158.89C347.38 161.729 349.681 164.03 352.52 164.03Z"></path>
<path stroke-linejoin="round" stroke-linecap="round" stroke-width="2" stroke="black" fill="white" d="M299.3 162.8C302.139 162.8 304.44 160.498 304.44 157.66C304.44 154.821 302.139 152.52 299.3 152.52C296.461 152.52 294.16 154.821 294.16 157.66C294.16 160.498 296.461 162.8 299.3 162.8Z"></path>
<path stroke-linejoin="round" stroke-linecap="round" stroke-width="2" stroke="black" fill="white" d="M325.65 162.8C328.489 162.8 330.79 160.498 330.79 157.66C330.79 154.821 328.489 152.52 325.65 152.52C322.811 152.52 320.51 154.821 320.51 157.66C320.51 160.498 322.811 162.8 325.65 162.8Z"></path>
<path stroke-linejoin="round" stroke-linecap="round" stroke-width="2" stroke="black" fill="white" d="M351.99 162.8C354.829 162.8 357.13 160.498 357.13 157.66C357.13 154.821 354.829 152.52 351.99 152.52C349.151 152.52 346.85 154.821 346.85 157.66C346.85 160.498 349.151 162.8 351.99 162.8Z"></path>
<path stroke-linejoin="round" stroke-linecap="round" stroke-width="2" stroke="black" fill="black" d="M511.9 462.45H308.75C300.94 462.45 295.72 458.95 295.72 458.95L290.49 237.91C290.49 230.18 296.76 223.91 304.49 223.91L523.34 230.68C523.34 230.68 525.07 233.04 525.07 245.76L525.9 448.46C525.9 456.19 519.63 462.46 511.9 462.46V462.45Z"></path>
<path stroke-linejoin="round" stroke-linecap="round" stroke-width="2" stroke="black" fill="#EDFF36" d="M510.52 222.32H303.11C295.378 222.32 289.11 228.588 289.11 236.32V446.87C289.11 454.602 295.378 460.87 303.11 460.87H510.52C518.252 460.87 524.52 454.602 524.52 446.87V236.32C524.52 228.588 518.252 222.32 510.52 222.32Z"></path>
<path stroke-linejoin="round" stroke-linecap="round" stroke-width="2" stroke="black" fill="black" d="M750.49 335.491H553.56C545.83 335.491 539.81 329.121 539.81 321.391L540.27 237.701C540.27 229.971 545.83 223.601 553.56 223.601H750.49C758.22 223.601 764.49 229.871 764.49 237.601V321.501C764.49 329.231 758.22 335.501 750.49 335.501V335.491Z"></path>
<path stroke-linejoin="round" stroke-linecap="round" stroke-width="2" stroke="black" fill="#71E0FF" d="M751.26 222.32H554.33C546.598 222.32 540.33 228.588 540.33 236.32V320.22C540.33 327.952 546.598 334.22 554.33 334.22H751.26C758.992 334.22 765.26 327.952 765.26 320.22V236.32C765.26 228.588 758.992 222.32 751.26 222.32Z"></path>
<path stroke-linejoin="round" stroke-linecap="round" stroke-width="2" stroke="black" fill="white" d="M658.73 265.71C641.05 265.71 644.86 272.24 633.98 272.24C623.1 272.24 621.06 240.15 606.24 240.15C591.42 240.15 587.23 268.63 579.45 270.2C573.33 271.44 570.32 261.24 561.5 259.18C554 257.43 542.99 261.73 526.41 282.84H680.22C680.22 282.84 676.41 265.7 658.73 265.7V265.71Z"></path>
<path stroke-linejoin="round" stroke-linecap="round" stroke-width="2" stroke="black" fill="white" d="M649.51 317.77L790.35 317.29C790.35 317.29 773.48 298.44 760.94 298.44C748.4 298.44 739.63 307.39 730.63 307.47C721.39 307.55 719.94 287.19 710.83 287.19C699.43 287.19 695.24 308.81 684.21 308.89C677.45 308.94 673.97 301.5 667.1 301.6C658.28 301.74 649.51 317.76 649.51 317.76V317.77Z"></path>
<path stroke-linejoin="round" stroke-linecap="round" stroke-width="2" stroke="black" d="M751.26 222.32H554.33C546.598 222.32 540.33 228.588 540.33 236.32V320.22C540.33 327.952 546.598 334.22 554.33 334.22H751.26C758.992 334.22 765.26 327.952 765.26 320.22V236.32C765.26 228.588 758.992 222.32 751.26 222.32Z"></path>
<path stroke-linejoin="round" stroke-linecap="round" stroke-width="2" stroke="black" fill="white" d="M357.12 300.17C356.33 299.23 355.39 297.64 354.16 295.41C353.01 293.17 351.92 291.29 350.91 289.63C350.04 288.26 349.03 287.54 347.81 287.54H346.73C344.49 287.54 343.63 288.33 343.84 291C343.84 292.73 344.2 295.98 344.2 297.35C344.2 301.1 342.03 302.98 337.77 302.98C333.51 302.98 331.27 301.1 331.27 297.35C331.27 296.63 331.41 294.46 331.7 290.92C331.99 287.38 332.13 283.41 332.13 279.15C332.13 274.89 331.99 271.14 331.7 267.6C331.41 264.06 331.27 261.97 331.27 261.17C331.27 257.42 333.72 255.54 338.71 255.54H350.77C363.19 255.54 369.9 261.61 369.9 271.93C369.9 277.78 366.87 282.25 361.96 284.64C361.02 285.15 360.88 285.8 361.53 286.59C362.47 287.89 363.7 289.26 365.14 290.78L367.81 293.67C369.25 295.26 369.98 296.85 369.98 298.51C369.98 301.61 367.81 303.2 363.56 303.2C360.38 303.2 358.87 302.26 357.13 300.17H357.12ZM351.49 278.73C355.89 278.73 358.64 276.35 358.64 272.23C358.64 267.61 355.9 265.23 351.49 265.23H346.65C344.56 265.23 343.83 265.74 343.62 267.4C343.62 267.62 343.55 270.22 343.4 275.13C343.33 277.73 344.12 278.74 346.36 278.74H351.49V278.73Z"></path>
<path stroke-linejoin="round" stroke-linecap="round" stroke-width="2" stroke="black" fill="white" d="M384.63 298L376.69 274.46L374.81 269.19C374.16 267.24 373.66 265.94 373.37 265.22C372.86 263.78 372.5 261.76 372.5 259.95C372.5 256.99 374.74 255.04 378.13 255.04C381.31 255.04 383.4 256.34 384.41 258.94C384.84 260.02 385.28 261.9 385.78 264.64C386.29 267.38 386.94 270.05 387.58 272.58L389.67 280.74C390.39 283.56 392.12 283.56 392.85 280.74C393.36 278.65 394.29 275.18 395.59 270.42L397.97 261.03C399.12 256.77 400.35 255.04 404.11 255.04C407.87 255.04 409.09 256.7 410.17 261.03C410.39 261.68 410.68 262.91 411.11 264.86C411.62 266.81 412.05 268.61 412.55 270.35C413.71 274.61 414.64 278.08 415.29 280.75C416.01 283.57 417.74 283.57 418.47 280.75C418.98 279.16 419.84 275.19 420.64 272.59C421.29 270.06 421.79 267.39 422.3 264.65C422.81 261.91 423.31 260.03 423.74 258.95C424.75 256.35 426.84 255.05 430.02 255.05C433.41 255.05 435.65 257 435.72 259.96C435.72 261.76 435.29 263.71 434.71 265.23L433.34 269.13L431.46 274.47L423.59 298.01C422.36 301.84 420.63 303.42 417.09 303.42C413.26 303.42 411.39 301.83 410.45 298.01L405.54 280.47C404.82 277.73 403.3 277.65 402.58 280.47L397.74 298.01C396.66 301.84 395 303.42 391.03 303.42C387.49 303.42 385.83 301.83 384.6 298.01L384.63 298Z"></path>
<path stroke-linejoin="round" stroke-linecap="round" stroke-width="2" stroke="black" fill="white" d="M449.54 302.48C443.19 302.48 440.8 300.53 440.8 296.7C440.8 295.91 440.94 293.81 441.23 290.35C441.52 286.88 441.66 283.13 441.66 279.02C441.66 274.91 441.52 271.15 441.23 267.69C440.94 264.22 440.8 262.13 440.8 261.34C440.8 257.51 443.18 255.56 449.54 255.56H456.25C464.34 255.56 470.69 257.65 475.24 261.91C479.79 266.17 482.1 271.87 482.1 279.02C482.1 286.17 479.79 291.87 475.24 296.13C470.69 300.39 464.34 302.48 456.25 302.48H449.54ZM469.9 279.02C469.9 270.86 465.35 265.74 457.92 265.74C454.45 265.74 453.52 266.61 453.3 268.7C453.01 271.73 452.87 275.2 452.87 279.02C452.87 284.15 453.01 287.61 453.3 289.42C453.59 292.02 454.89 292.31 458.43 292.31C465.36 292.24 469.91 287.11 469.91 279.03L469.9 279.02Z"></path>
<path stroke-linejoin="round" stroke-linecap="round" stroke-width="2" stroke="black" d="M492.47 244.43H320.9V314.03H492.47V244.43Z"></path>
<path stroke-linejoin="round" stroke-linecap="round" stroke-width="2" stroke="black" fill="black" d="M493.44 248.61C495.495 248.61 497.16 246.944 497.16 244.89C497.16 242.835 495.495 241.17 493.44 241.17C491.386 241.17 489.72 242.835 489.72 244.89C489.72 246.944 491.386 248.61 493.44 248.61Z"></path>
<path stroke-linejoin="round" stroke-linecap="round" stroke-width="2" stroke="black" fill="white" d="M492.47 248.15C494.525 248.15 496.19 246.484 496.19 244.43C496.19 242.375 494.525 240.71 492.47 240.71C490.416 240.71 488.75 242.375 488.75 244.43C488.75 246.484 490.416 248.15 492.47 248.15Z"></path>
<path stroke-linejoin="round" stroke-linecap="round" stroke-width="2" stroke="black" fill="black" d="M493.44 318.219C495.495 318.219 497.16 316.554 497.16 314.499C497.16 312.445 495.495 310.779 493.44 310.779C491.386 310.779 489.72 312.445 489.72 314.499C489.72 316.554 491.386 318.219 493.44 318.219Z"></path>
<path stroke-linejoin="round" stroke-linecap="round" stroke-width="2" stroke="black" fill="white" d="M492.47 317.75C494.525 317.75 496.19 316.084 496.19 314.03C496.19 311.975 494.525 310.31 492.47 310.31C490.416 310.31 488.75 311.975 488.75 314.03C488.75 316.084 490.416 317.75 492.47 317.75Z"></path>
<path stroke-linejoin="round" stroke-linecap="round" stroke-width="2" stroke="black" fill="black" d="M321.16 248.61C323.215 248.61 324.88 246.944 324.88 244.89C324.88 242.835 323.215 241.17 321.16 241.17C319.106 241.17 317.44 242.835 317.44 244.89C317.44 246.944 319.106 248.61 321.16 248.61Z"></path>
<path stroke-linejoin="round" stroke-linecap="round" stroke-width="2" stroke="black" fill="white" d="M320.19 248.15C322.245 248.15 323.91 246.484 323.91 244.43C323.91 242.375 322.245 240.71 320.19 240.71C318.136 240.71 316.47 242.375 316.47 244.43C316.47 246.484 318.136 248.15 320.19 248.15Z"></path>
<path stroke-linejoin="round" stroke-linecap="round" stroke-width="2" stroke="black" fill="black" d="M321.16 318.219C323.215 318.219 324.88 316.554 324.88 314.499C324.88 312.445 323.215 310.779 321.16 310.779C319.106 310.779 317.44 312.445 317.44 314.499C317.44 316.554 319.106 318.219 321.16 318.219Z"></path>
<path stroke-linejoin="round" stroke-linecap="round" stroke-width="2" stroke="black" fill="white" d="M320.19 317.75C322.245 317.75 323.91 316.084 323.91 314.03C323.91 311.975 322.245 310.31 320.19 310.31C318.136 310.31 316.47 311.975 316.47 314.03C316.47 316.084 318.136 317.75 320.19 317.75Z"></path>
<path stroke-linejoin="round" stroke-linecap="round" stroke-width="2" stroke="black" fill="white" d="M479.67 382.19H333.7C330.497 382.19 327.9 384.787 327.9 387.99C327.9 391.194 330.497 393.79 333.7 393.79H479.67C482.873 393.79 485.47 391.194 485.47 387.99C485.47 384.787 482.873 382.19 479.67 382.19Z"></path>
<path stroke-linejoin="round" stroke-linecap="round" stroke-width="2" stroke="black" fill="white" d="M470.58 405.74H342.79C339.587 405.74 336.99 408.337 336.99 411.54C336.99 414.744 339.587 417.34 342.79 417.34H470.58C473.783 417.34 476.38 414.744 476.38 411.54C476.38 408.337 473.783 405.74 470.58 405.74Z"></path>
<path stroke-linejoin="round" stroke-linecap="round" stroke-width="2" stroke="black" fill="white" d="M456.63 429.29H356.74C353.537 429.29 350.94 431.887 350.94 435.09C350.94 438.293 353.537 440.89 356.74 440.89H456.63C459.833 440.89 462.43 438.293 462.43 435.09C462.43 431.887 459.833 429.29 456.63 429.29Z"></path>
<path stroke-linejoin="round" stroke-linecap="round" stroke-width="2" stroke="black" fill="#FF91DF" d="M433.91 334.85H382.49C374.659 334.85 368.31 341.196 368.31 349.025C368.31 356.853 374.659 363.2 382.49 363.2H433.91C441.741 363.2 448.09 356.853 448.09 349.025C448.09 341.196 441.741 334.85 433.91 334.85Z"></path>
<path stroke-linejoin="round" stroke-linecap="round" stroke-width="2" stroke="black" fill="black" d="M750.23 462.759H553.3C545.57 462.759 539.3 456.489 539.3 448.759L540.18 364.899C540.18 357.169 545.57 350.869 553.3 350.869H750.23C757.96 350.869 764.23 357.139 764.23 364.869V448.769C764.23 456.499 757.96 462.769 750.23 462.769V462.759Z"></path>
<path stroke-linejoin="round" stroke-linecap="round" stroke-width="2" stroke="black" fill="#BAEDFF" d="M751.26 349.02H554.33C546.598 349.02 540.33 355.288 540.33 363.02V446.92C540.33 454.652 546.598 460.92 554.33 460.92H751.26C758.992 460.92 765.26 454.652 765.26 446.92V363.02C765.26 355.288 758.992 349.02 751.26 349.02Z"></path>
<path stroke-linejoin="round" stroke-linecap="round" stroke-width="2" stroke="black" fill="#FF9231" d="M127.5 531.471C126.04 531.471 124.58 530.961 123.39 529.921C120.81 527.651 120.56 523.721 122.83 521.141L136.35 505.771C143.83 497.271 147.95 486.341 147.95 475.021V392.821C147.95 389.381 150.74 386.601 154.17 386.601C157.6 386.601 160.39 389.391 160.39 392.821V475.021C160.39 489.371 155.17 503.211 145.69 513.991L132.17 529.361C130.94 530.761 129.22 531.471 127.5 531.471Z"></path>
<path stroke-linejoin="round" stroke-linecap="round" stroke-width="2" stroke="black" fill="#FF9231" d="M132.03 425.62C132.03 425.62 132.03 425.65 132.03 425.66V425.62Z"></path>
<path stroke-linejoin="round" stroke-linecap="round" stroke-width="2" stroke="black" fill="#FF9231" d="M132.03 605.56V425.71C132.03 427.29 130.99 428.87 128.91 430.07C124.72 432.49 117.92 432.47 113.71 430.04C111.61 428.83 110.56 427.25 110.54 425.66V605.6C110.55 609.65 132.05 609.6 132.04 605.55L132.03 605.56Z"></path>
<path stroke-linejoin="round" stroke-linecap="round" stroke-width="2" stroke="black" fill="#FF9231" d="M132.03 425.723C132.048 422.293 127.251 419.487 121.314 419.455C115.377 419.423 110.549 422.177 110.53 425.606C110.512 429.036 115.309 431.842 121.246 431.875C127.183 431.907 132.011 429.152 132.03 425.723Z"></path>
<path stroke-linejoin="round" stroke-linecap="round" stroke-width="2" stroke="black" fill="#FF9231" d="M115.06 507.141C116.52 507.141 117.98 506.631 119.17 505.591C121.75 503.321 122 499.391 119.73 496.811L106.21 481.441C98.7299 472.941 94.6099 462.011 94.6099 450.691V368.491C94.6099 365.051 91.8199 362.271 88.3899 362.271C84.9499 362.271 82.1699 365.061 82.1699 368.491V450.691C82.1699 465.041 87.3899 478.881 96.8699 489.661L110.39 505.031C111.62 506.431 113.34 507.141 115.06 507.141Z"></path>
<path stroke-linejoin="round" stroke-linecap="round" stroke-width="2" stroke="black" fill="#54F980" d="M211.41 380.28C214.75 375.01 216.68 368.76 216.68 362.06C216.68 355.01 214.54 348.45 210.88 343.01C212.95 337.92 214.09 332.36 214.09 326.52C214.09 302.28 194.44 282.63 170.2 282.63C166.6 282.63 163.1 283.07 159.76 283.89C156.15 263.29 138.18 247.62 116.54 247.62C96.34 247.62 79.34 261.27 74.23 279.84C72.55 279.59 70.83 279.45 69.08 279.45C50.22 279.45 34.93 294.74 34.93 313.6C34.93 315.51 35.09 317.38 35.4 319.21C15.73 323.55 1 341.08 1 362.06C1 383.04 15.17 399.91 34.29 404.65C32.5 409.44 31.51 414.62 31.51 420.03C31.51 444.27 51.16 463.92 75.4 463.92C88.24 463.92 99.78 458.4 107.8 449.62C113.34 454.34 120.51 457.19 128.35 457.19C138.33 457.19 147.22 452.58 153.03 445.38C160.37 450.9 169.49 454.18 179.39 454.18C203.63 454.18 223.28 434.53 223.28 410.29C223.28 398.68 218.77 388.14 211.41 380.29V380.28Z"></path>
<path stroke-linejoin="round" stroke-linecap="round" stroke-width="2" stroke="black" d="M210.88 343C201.6 330.33 188.79 324.96 172.46 326.9"></path>
<path stroke-linejoin="round" stroke-linecap="round" stroke-width="2" stroke="black" d="M153.03 445.37C143.24 438.49 136.35 429.37 133.97 416.73"></path>
<path stroke-linejoin="round" stroke-linecap="round" stroke-width="2" stroke="black" fill="#F96612" d="M106.25 348.08L105.32 279.29C105.32 268.21 96.34 259.23 85.26 259.23C74.18 259.23 65.2 268.21 65.2 279.29V347.23C77.72 351.7 93.42 351.99 106.26 348.08H106.25Z"></path>
<path stroke-linejoin="round" stroke-linecap="round" stroke-width="2" stroke="black" fill="white" d="M87.4303 283.077C88.1521 278.282 85.4609 273.902 81.4196 273.294C77.3782 272.685 73.5169 276.079 72.7951 280.874C72.0734 285.669 74.7645 290.05 78.8058 290.658C82.8472 291.266 86.7085 287.872 87.4303 283.077Z"></path>
<path stroke-linejoin="round" stroke-linecap="round" stroke-width="2" stroke="black" fill="black" d="M80.1101 281.781L77.7701 278.601C78.5701 277.771 79.6501 277.331 80.7601 277.501C82.7601 277.801 84.0901 279.961 83.7301 282.331C83.3701 284.701 81.4701 286.371 79.4701 286.071C78.5901 285.941 77.8401 285.451 77.3101 284.731L80.1201 281.781H80.1101Z"></path>
<path stroke-linejoin="round" stroke-linecap="round" stroke-width="2" stroke="black" fill="#EDFF36" d="M89.3999 296.56C89.3999 291.6 92.8999 285.56 97.2299 283.06C99.7199 281.62 101.94 281.68 103.37 282.93C103.87 283.37 117.12 303.48 117.12 303.48C117.12 303.48 92.7199 302.03 92.1599 301.8C90.4799 301.12 89.4099 299.29 89.4099 296.55L89.3999 296.56Z"></path>
<path stroke-linejoin="round" stroke-linecap="round" stroke-width="2" stroke="black" d="M89.8398 293.36C94.9098 297.61 105.53 300.65 117.12 303.48"></path>
<path fill="#54F980" d="M58.1699 355.4C59.9999 348.27 64.3499 341.76 70.9199 337.31C85.2099 327.64 104.64 331.39 114.31 345.69C118.53 351.93 120.19 359.15 119.54 366.11"></path>
<path stroke-linejoin="round" stroke-linecap="round" stroke-width="2" stroke="black" d="M58.1699 355.4C59.9999 348.27 64.3499 341.76 70.9199 337.31C85.2099 327.64 104.64 331.39 114.31 345.69C118.53 351.93 120.19 359.15 119.54 366.11"></path>
<path stroke-linejoin="round" stroke-linecap="round" stroke-width="2" stroke="black" fill="#CBEE2D" d="M893.82 558.331C896.03 555.601 899.44 551.07 900.02 547.29C900.89 541.67 898.82 536.641 895.8 532.521C897.31 530.681 899.92 527.781 900.39 524.711C902.06 513.891 896.41 504.57 888.65 503.38C880.89 502.19 872.84 509.93 871.17 520.75C870.7 523.82 871.31 526.79 872.89 529.49C868.77 532.51 864.54 537.331 863.67 542.961C863.09 546.751 864.65 551.03 865.94 554.3C861.01 558.01 856.31 563.12 855.27 569.91C853.23 583.16 862.35 591.2 874.83 593.13C887.31 595.05 898.43 590.13 900.47 576.87C901.51 570.09 897.41 563.37 893.82 558.35V558.331Z"></path>
<path stroke-linejoin="round" stroke-linecap="round" stroke-width="2" stroke="black" d="M877.83 629.741C872.9 578.151 881.42 536.391 887.84 512.261"></path>
<path stroke-linejoin="round" stroke-linecap="round" stroke-width="2" stroke="black" fill="#CBEE2D" d="M826.96 579.571C823.8 578.541 818.76 576.691 816.34 573.981C812.76 569.951 811.81 564.891 812.09 560.061C809.95 559.371 806.38 558.411 804.42 556.211C797.53 548.471 797.21 538.151 802.77 533.211C808.32 528.261 818.72 530.281 825.61 538.021C827.57 540.221 828.61 542.901 828.75 545.851C833.59 546.131 839.43 547.781 843.01 551.811C845.42 554.521 846.39 558.741 847.04 562.001C852.87 562.411 859.24 564.061 863.56 568.911C872.01 578.401 868.9 589.481 859.96 597.441C851.03 605.391 839.65 607.201 831.21 597.721C826.89 592.861 826.69 585.411 826.96 579.571Z"></path>
<path stroke-linejoin="round" stroke-linecap="round" stroke-width="2" stroke="black" d="M877.83 629.741C865.89 594.511 825.52 555.741 808 539.861"></path>
<path stroke-linejoin="round" stroke-linecap="round" stroke-width="2" stroke="black" fill="#CBEE2D" d="M920.58 586.861C923.78 586.321 926.97 584.811 929.65 582.321C936.23 576.201 937.21 566.561 931.84 560.791C926.47 555.021 916.78 555.301 910.2 561.421C907.52 563.911 905.79 566.981 905.02 570.141C899.38 569.691 893.27 571.711 888.46 576.191C880.04 584.031 880.39 594.871 887.27 602.261C894.14 609.651 904.93 610.781 913.36 602.941C918.17 598.461 920.63 592.511 920.59 586.861H920.58Z"></path>
<path stroke-linejoin="round" stroke-linecap="round" stroke-width="2" stroke="black" d="M877.83 629.741C887.27 602.261 913.52 573.811 925.52 567.471"></path>
<path stroke-linejoin="round" stroke-linecap="round" stroke-width="2" stroke="black" fill="#CBEE2D" d="M835.14 613.05C832.48 613.8 829.49 613.81 826.53 612.88C819.25 610.58 814.98 603.54 817 597.16C819.01 590.77 826.55 587.46 833.83 589.76C836.79 590.69 839.24 592.42 840.98 594.56C845.14 592.16 850.56 591.48 855.89 593.16C865.21 596.1 868.89 604.55 866.31 612.72C863.73 620.89 855.87 625.7 846.55 622.76C841.22 621.08 837.17 617.41 835.14 613.06V613.05Z"></path>
<path stroke-linejoin="round" stroke-linecap="round" stroke-width="2" stroke="black" d="M877.83 629.74C867.31 612.81 842.76 603.03 828.82 600.34"></path>
<path stroke-linejoin="round" stroke-linecap="round" stroke-width="2" stroke="black" fill="#6637EC" d="M929.58 696.87C947.24 702.67 973.52 703.81 990.07 696.67C1005.51 690.01 997.78 680.72 980.37 674.2C968.65 669.81 939.11 668.29 923.37 674.2C907.63 680.11 911.93 691.07 929.59 696.87H929.58Z"></path>
<path stroke-linejoin="round" stroke-linecap="round" stroke-width="2" stroke="black" fill="#F0A1D6" d="M934.72 698.359L935.78 614.78C935.78 603.31 945.07 594.02 956.54 594.02C968.01 594.02 977.3 603.31 977.3 614.78V700.33C962.86 702.68 950.76 702.179 934.72 698.359Z"></path>
<path stroke-linejoin="round" stroke-linecap="round" stroke-width="2" stroke="black" fill="white" d="M965.573 625.708C969.757 625.078 972.542 620.543 971.795 615.579C971.048 610.614 967.051 607.1 962.867 607.73C958.684 608.36 955.898 612.895 956.645 617.859C957.393 622.823 961.39 626.337 965.573 625.708Z"></path>
<path stroke-linejoin="round" stroke-linecap="round" stroke-width="2" stroke="black" fill="black" d="M964.88 616.689L966.55 613.879C965.79 613.009 964.72 612.529 963.63 612.699C961.77 612.979 960.54 614.989 960.87 617.189C961.2 619.389 962.98 620.949 964.83 620.669C965.95 620.499 966.84 619.699 967.3 618.609L964.87 616.679L964.88 616.689Z"></path>
<path stroke-linejoin="round" stroke-linecap="round" stroke-width="2" stroke="black" fill="#FF9231" d="M954.96 634.939C954.96 629.199 950.91 622.219 945.91 619.329C943.34 617.839 941.02 617.739 939.37 618.769L920.67 629.679C916.2 632.299 914.47 636.839 914.47 640.579V640.599C914.47 642.469 915.71 644.339 918.17 645.759C923.13 648.619 931.19 648.609 936.17 645.729L954.96 634.939Z"></path>
<path stroke-linejoin="round" stroke-linecap="round" stroke-width="2" stroke="black" fill="#F96612" d="M954.96 634.939L936.17 645.729C932.69 647.739 927.71 648.349 923.33 647.569C925.83 650.719 933.47 651.419 939.82 647.899L952.1 640.859C952.26 640.779 952.42 640.689 952.57 640.589H952.59C954.06 639.579 954.96 637.639 954.96 634.939Z"></path>
<path fill="black" d="M363.04 687.369L412.47 640.079L238.38 633.939L149.44 671.589"></path>
<path stroke-linejoin="round" stroke-linecap="round" stroke-width="2" stroke="black" d="M363.04 687.369L412.47 640.079L238.38 633.939L149.44 671.589"></path>
<path stroke-linejoin="round" stroke-linecap="round" stroke-width="2" stroke="black" fill="#6637EC" d="M350.79 691.35L164.07 674.79C158.01 674.31 153.6 668.84 154.42 662.82L193.18 377.43C193.55 374.73 195.06 370.24 195.06 370.24C195.06 370.24 201.01 375.61 203.73 375.72L395.18 381.91C402.03 390.38 402.43 394.83 401.73 400.83L369.43 676.28C368.57 684.56 359.84 692.28 350.8 691.36L350.79 691.35Z"></path>
<path stroke-linejoin="round" stroke-linecap="round" stroke-width="2" stroke="black" fill="#6637EC" d="M350.79 691.35L157.3 676.12C151.24 675.64 146.83 670.17 147.65 664.15L186.41 378.76C187.14 373.37 191.85 369.41 197.29 369.61L386.45 376.67C392.62 376.9 397.28 382.34 396.56 388.48L362.14 682.04C361.01 688.11 356.47 691.8 350.8 691.36L350.79 691.35Z"></path>
<path stroke-linejoin="round" stroke-linecap="round" stroke-width="2" stroke="black" fill="white" d="M160.53 663.64L198.73 382.37L383.68 389.28L349.76 678.53L160.53 663.64Z"></path>
<path stroke-linejoin="round" stroke-linecap="round" stroke-width="2" stroke="black" fill="#E2F8FF" d="M160.53 663.64L198.73 382.37L383.68 389.28L349.76 678.53L160.53 663.64Z"></path>
<path stroke-linejoin="round" stroke-linecap="round" stroke-width="2" stroke="black" fill="white" d="M218.89 412.68L357.2 418.64C361.82 418.84 365.82 415.44 366.35 410.84L366.44 410.05C367.04 404.93 363.15 400.38 357.99 400.19L219.59 395.02C215.05 394.85 211.12 398.16 210.51 402.66C209.81 407.81 213.69 412.45 218.88 412.68H218.89Z"></path>
<path stroke-linejoin="round" stroke-linecap="round" stroke-width="2" stroke="black" fill="#EDFF36" d="M346.54 579L362.97 438.89C363.67 432.91 359.12 427.6 353.1 427.37L219.62 422.39C214.31 422.19 209.72 426.05 209.01 431.32L190.4 568.33C189.59 574.28 194.02 579.67 200.02 580.02L335.68 588.1C341.14 588.43 345.91 584.43 346.55 579H346.54Z"></path>
<path stroke-linejoin="round" stroke-linecap="round" stroke-width="2" stroke="black" fill="#BAEDFF" d="M335.85 653.83L340.92 610.64C341.61 604.72 337.21 599.44 331.26 599.05L198.41 590.5C192.96 590.15 188.18 594.07 187.44 599.48L181.86 640.56C181.06 646.47 185.39 651.85 191.33 652.32L324.69 662.98C330.26 663.43 335.19 659.38 335.84 653.83H335.85Z"></path>
<path stroke-linejoin="round" stroke-linecap="round" stroke-width="2" stroke="black" fill="#54F980" d="M286.74 527.2C286.74 527.2 284.02 497.68 258.55 485.83C243.67 478.91 218.34 484.95 218.34 484.95C233.73 499.67 257.23 515.21 286.74 527.19V527.2Z"></path>
<path stroke-linejoin="round" stroke-linecap="round" stroke-width="2" stroke="black" d="M286.74 527.2C291.97 540.19 294.79 575.1 296.98 608.8"></path>
<path stroke-linejoin="round" stroke-linecap="round" stroke-width="2" stroke="black" fill="#54F980" d="M376 456.88C376 456.88 369.12 481.18 358.14 493.2C345.05 507.54 321.58 516.07 303.22 518.07C303.22 518.07 308.86 493.95 329.95 475.73C345.92 461.93 376 456.88 376 456.88Z"></path>
<path stroke-linejoin="round" stroke-linecap="round" stroke-width="2" stroke="black" d="M303.21 518.07C299.95 529.65 297.77 578.14 296.99 608.8"></path>
<path stroke-linejoin="round" stroke-linecap="round" stroke-width="2" stroke="black" fill="#54F980" d="M389.18 585.16C378.81 589.68 367.63 594.12 357.76 591.82C345.99 589.08 335.83 576.48 329.14 567.12C329.14 567.12 349.61 559.26 362.12 562.55C378.32 566.81 389.17 585.16 389.17 585.16H389.18Z"></path>
<path stroke-linejoin="round" stroke-linecap="round" stroke-width="2" stroke="black" d="M296.98 608.8C302.75 587.96 314.29 573.92 329.14 567.12"></path>
<path stroke-linejoin="round" stroke-linecap="round" stroke-width="2" stroke="black" d="M313.12 550.42C309.31 559.77 299.12 586.72 296.99 608.8"></path>
<path stroke-linejoin="round" stroke-linecap="round" stroke-width="2" stroke="black" d="M282.14 555.16L296.98 608.8"></path>
<path stroke-linejoin="round" stroke-linecap="round" stroke-width="2" stroke="black" d="M346.54 579L362.97 438.89C363.67 432.91 359.12 427.6 353.1 427.37L219.62 422.39C214.31 422.19 209.72 426.05 209.01 431.32L190.4 568.33C189.59 574.28 194.02 579.67 200.02 580.02L335.68 588.1C341.14 588.43 345.91 584.43 346.55 579H346.54Z"></path>
<path stroke-linejoin="round" stroke-linecap="round" stroke-width="2" stroke="black" fill="#54F980" d="M244.75 600.62C244.75 600.62 224.54 559.32 238.64 540.04C242.57 534.67 245.65 532.33 252.98 530.26C260.53 528.13 277.3 532.34 277.3 532.34C269.95 535.54 264.55 547.18 260.08 556.52C250.68 576.2 244.74 600.62 244.74 600.62H244.75Z"></path>
<path stroke-linejoin="round" stroke-linecap="round" stroke-width="2" stroke="black" fill="#45E464" d="M277.31 532.34C273.39 534.05 270.14 538.22 267.22 543.12C271.51 547.88 273.46 551.87 282.14 555.16C283.07 543.75 281.7 536.98 277.3 532.34H277.31Z"></path>
<path stroke-linejoin="round" stroke-linecap="round" stroke-width="2" stroke="black" fill="#54F980" d="M368.9 580.02C363.39 575.23 330.23 554.97 321.3 544.04C314.16 535.31 308.03 529.09 307.11 529.68C309.18 527.26 320.8 524 327.98 522.17C331.9 521.17 337.97 521.4 341.49 522.97C345.01 524.54 351.63 530.36 354.51 536.15C362.93 553.07 368.89 580.01 368.89 580.01L368.9 580.02Z"></path>
<path stroke-linejoin="round" stroke-linecap="round" stroke-width="2" stroke="black" fill="#45E464" d="M305.46 534.12C305.53 532.55 306.1 530.95 307.12 529.69L307.34 529.66C308.77 529.84 314.59 535.83 321.31 544.05C321.84 544.7 322.46 545.38 323.14 546.09C319.92 548.34 314.59 550.25 313.12 550.43C306.63 543.41 305.31 537.52 305.46 534.13V534.12Z"></path>
<path stroke-linejoin="round" stroke-linecap="round" stroke-width="2" stroke="black" fill="#FF9231" d="M766.49 487.569C766.49 487.569 766.49 487.599 766.49 487.609V487.569Z"></path>
<path stroke-linejoin="round" stroke-linecap="round" stroke-width="2" stroke="black" fill="#FF9231" d="M766.49 655.869V487.659C766.49 489.249 765.44 490.829 763.35 492.039C759.14 494.469 752.3 494.459 748.07 492.009C745.96 490.789 744.9 489.199 744.88 487.609V655.909C744.89 662.469 766.49 662.419 766.49 655.859V655.869Z"></path>
<path stroke-linejoin="round" stroke-linecap="round" stroke-width="2" stroke="black" fill="#FF9231" d="M766.481 487.667C766.5 484.221 761.68 481.401 755.715 481.369C749.75 481.336 744.9 484.104 744.881 487.55C744.863 490.996 749.683 493.816 755.647 493.848C761.612 493.881 766.462 491.113 766.481 487.667Z"></path>
<path stroke-linejoin="round" stroke-linecap="round" stroke-width="2" stroke="black" fill="#FF9231" d="M750.22 579.42C751.71 579.42 753.21 578.9 754.42 577.84C757.06 575.52 757.31 571.51 755 568.87L741.19 553.17C733.55 544.48 723.58 532.86 723.83 516.1V432.12C723.83 428.61 720.98 425.76 717.47 425.76C713.96 425.76 711.11 428.61 711.11 432.12V516.1C710.98 535.2 721.95 550.55 731.63 561.56L745.44 577.26C746.7 578.69 748.45 579.42 750.22 579.42Z"></path>
<path stroke-linejoin="round" stroke-linecap="round" stroke-width="2" stroke="black" fill="#66FF7C" d="M837.41 436.05C842.82 429.75 846.68 421.97 848.25 413.21C852.95 387 835.52 361.95 809.31 357.25C795.87 354.84 782.75 358.26 772.51 365.68C767.39 353.76 756.57 344.55 742.84 342.09C721.11 338.19 700.34 352.64 696.44 374.37C696.43 374.45 696.42 374.52 696.41 374.6C695.06 374.21 693.67 373.88 692.25 373.62C670.52 369.72 649.75 384.17 645.85 405.9C644.23 414.94 645.79 423.8 649.72 431.36C644.54 437.57 640.84 445.16 639.31 453.7C634.61 479.91 652.04 504.96 678.25 509.66C681.83 510.3 685.38 510.52 688.86 510.37C695.61 522.78 707.72 532.14 722.71 534.83C744.37 538.72 765.23 527.47 774.47 508.66C780.22 512.9 787.01 515.92 794.52 517.27C820.73 521.97 845.78 504.54 850.48 478.33C853.35 462.35 847.98 446.82 837.42 436.05H837.41Z"></path>
<path fill="#66FF7C" d="M694.25 471.62C688.19 467.62 684.19 460.75 684.19 452.95C684.19 440.6 694.2 430.59 706.55 430.59"></path>
<path stroke-linejoin="round" stroke-linecap="round" stroke-width="2" stroke="black" d="M694.25 471.62C688.19 467.62 684.19 460.75 684.19 452.95C684.19 440.6 694.2 430.59 706.55 430.59"></path>
<path fill="#66FF7C" d="M738.61 409.24C740.25 402.86 744.14 397.02 750.03 393.04C762.83 384.38 780.23 387.74 788.89 400.54C792.67 406.13 794.16 412.6 793.57 418.83"></path>
<path stroke-linejoin="round" stroke-linecap="round" stroke-width="2" stroke="black" d="M738.61 409.24C740.25 402.86 744.14 397.02 750.03 393.04C762.83 384.38 780.23 387.74 788.89 400.54C792.67 406.13 794.16 412.6 793.57 418.83"></path>
<path stroke-linejoin="round" stroke-linecap="round" stroke-width="2" stroke="black" fill="#4AD9C6" d="M124.58 525.101C117.61 563.161 110.08 591.401 107.39 643.111C107.39 646.601 92.3599 646.601 92.3599 643.111C96.9299 589.651 104.95 562.131 124.58 525.101Z"></path>
<path stroke-linejoin="round" stroke-linecap="round" stroke-width="2" stroke="black" fill="#4AD9C6" d="M46.98 522.23C63.42 559.93 68.27 596.28 74.95 642.99C74.95 644.92 89.98 644.92 89.98 642.99C78.28 590.97 72.35 564.5 46.98 522.23Z"></path>
<path stroke-linejoin="round" stroke-linecap="round" stroke-width="2" stroke="black" fill="#4AD9C6" d="M144.09 546.681C127.65 584.381 121.93 601.481 114.84 644.951C114.84 650.881 99.8101 650.881 99.8101 644.951C111.53 595.221 117.51 583.001 144.09 546.681Z"></path>
<path stroke-linejoin="round" stroke-linecap="round" stroke-width="2" stroke="black" fill="#4AD9C6" d="M49.1799 578.471C60.0799 603.461 63.2999 613.071 67.7199 644.031C67.7199 647.521 77.6799 647.521 77.6799 644.031C69.9199 609.541 66.7999 602.551 49.1699 578.471H49.1799Z"></path>
<path stroke-linejoin="round" stroke-linecap="round" stroke-width="2" stroke="black" fill="#4AD9C6" d="M95.6 646.651C94.45 613.371 89.98 583.331 82.26 559.921C82.7 581.081 83.1 613.021 82.26 646.651C82.26 651.191 95.6 651.191 95.6 646.651Z"></path>
<path stroke-linejoin="round" stroke-linecap="round" stroke-width="2" stroke="black" fill="#26BB9E" d="M796.1 758.309L508.01 868.469C494.69 873.559 479.64 870.709 469.11 861.089L389.34 788.219C385.87 785.049 384.15 780.919 383.98 776.779C383.7 769.879 383.98 756.139 383.98 756.139L660.42 669.899C670.59 666.429 681.76 667.459 691.12 672.739L805.05 726.939C805.05 726.939 805.13 740.489 805.11 745.229C805.09 750.649 802.01 756.039 796.1 758.299V758.309Z"></path>
<path stroke-linejoin="round" stroke-linecap="round" stroke-width="2" stroke="black" fill="#4AD9C6" d="M796.1 738.8L508.01 848.96C494.69 854.05 479.64 851.2 469.11 841.58L389.34 768.71C380.08 760.25 383.27 744.97 395.14 740.92L660.42 650.39C670.59 646.92 681.76 647.95 691.12 653.23L797.98 713.5C808.31 719.33 807.18 734.56 796.1 738.8Z"></path>
<path stroke-linejoin="round" stroke-linecap="round" stroke-width="2" stroke="black" fill="#BAEDFF" d="M494.54 842.99C487.22 842.99 480.21 840.27 474.81 835.34L395.05 762.47C392 759.68 392.32 756.25 392.6 754.9C392.88 753.55 393.96 750.27 397.87 748.94L663.15 658.41C666.2 657.37 669.37 656.84 672.59 656.84C677.61 656.84 682.58 658.14 686.96 660.61L793.82 720.88C796.59 722.44 796.71 725.07 796.63 726.13C796.55 727.19 796.05 729.77 793.07 730.91L504.98 841.07C501.63 842.35 498.12 843 494.54 843V842.99Z"></path>
<path stroke-linejoin="round" stroke-linecap="round" stroke-width="2" stroke="black" fill="black" d="M715.97 703.699L705.78 697.669C701.73 695.269 702.48 689.199 706.99 687.859C710.9 686.699 715.1 687.179 718.65 689.179L732.41 696.939C736 698.969 735.43 704.309 731.49 705.529C726.29 707.139 720.65 706.479 715.96 703.709L715.97 703.699Z"></path>
<path stroke-linejoin="round" stroke-linecap="round" stroke-width="2" stroke="black" fill="#4AD9C6" d="M767.68 749.669L780.91 744.609V764.119L767.68 769.169V749.669Z"></path>
<path stroke-linejoin="round" stroke-linecap="round" stroke-width="2" stroke="black" fill="#4AD9C6" d="M531.8 839.86L545.04 834.8V854.31L531.8 859.37V839.86Z"></path>
<path fill="#BAEDFF" d="M636.17 706.25C669.12 716.31 677.49 738.09 659.14 758.47L636.17 706.25Z"></path>
<path stroke-linejoin="round" stroke-linecap="round" stroke-width="2" stroke="black" d="M636.17 706.25C669.12 716.31 677.49 738.09 659.14 758.47"></path>
<path stroke-linejoin="round" stroke-linecap="round" stroke-width="2" stroke="black" d="M669.95 705C680.42 709.72 687.91 721.43 687.91 732.21"></path>
<path fill="#BAEDFF" d="M505.84 785.64C483.49 775.47 477.57 758.5 489.24 741.8C492.92 736.54 498.35 731.3 505.56 726.31"></path>
<path stroke-linejoin="round" stroke-linecap="round" stroke-width="2" stroke="black" d="M505.84 785.64C483.49 775.47 477.57 758.5 489.24 741.8C492.92 736.54 498.35 731.3 505.56 726.31"></path>
<path stroke-linejoin="round" stroke-linecap="round" stroke-width="2" stroke="black" d="M472.52 788.159C456.86 775.769 454.42 759.079 465.93 742.609"></path>
<path fill="#BAEDFF" d="M634.24 776.63C605.44 791.4 565.29 797.87 532.73 793.11L634.24 776.63Z"></path>
<path stroke-linejoin="round" stroke-linecap="round" stroke-width="2" stroke="black" d="M634.24 776.63C605.44 791.4 565.29 797.87 532.73 793.11"></path>
<path fill="#BAEDFF" d="M646.59 744.93C644.45 750.65 639.69 756.41 632.09 761.66C623.62 767.52 612.68 772.02 600.77 775.08"></path>
<path stroke-linejoin="round" stroke-linecap="round" stroke-width="2" stroke="black" d="M646.59 744.93C644.45 750.65 639.69 756.41 632.09 761.66C623.62 767.52 612.68 772.02 600.77 775.08"></path>
<path fill="#BAEDFF" d="M505.28 746.76C508.17 739.62 514.42 733.43 521.96 729.2C548.88 714.08 590.41 705.59 620.17 714.68C633.19 718.65 642.95 722.54 646.3 730.24"></path>
<path stroke-linejoin="round" stroke-linecap="round" stroke-width="2" stroke="black" d="M505.28 746.76C508.17 739.62 514.42 733.43 521.96 729.2C548.88 714.08 590.41 705.59 620.17 714.68C633.19 718.65 642.95 722.54 646.3 730.24"></path>
<path fill="#BAEDFF" d="M562.58 779.839C550.57 779.849 539.06 778.419 529.42 775.479C520.7 772.819 514.24 769.079 510.09 764.689"></path>
<path stroke-linejoin="round" stroke-linecap="round" stroke-width="2" stroke="black" d="M562.58 779.839C550.57 779.849 539.06 778.419 529.42 775.479C520.7 772.819 514.24 769.079 510.09 764.689"></path>
<path fill="#BAEDFF" d="M541.69 812.02C535.18 811.88 528.91 811.39 522.97 810.53C516.9 809.65 511.37 808.4 506.4 806.83"></path>
<path stroke-linejoin="round" stroke-linecap="round" stroke-width="2" stroke="black" d="M541.69 812.02C535.18 811.88 528.91 811.39 522.97 810.53C516.9 809.65 511.37 808.4 506.4 806.83"></path>
<path stroke-linejoin="round" stroke-linecap="round" stroke-width="2" stroke="black" fill="#EDFF36" d="M500.83 712.64C497.21 709.95 495.68 705.65 497.42 702.39C499.21 699.05 503.82 697.95 508.17 699.65C504.53 696.44 503.43 691.46 505.79 687.91C508.15 684.35 513.16 683.42 517.53 685.52C514.26 682.18 513.47 677.51 515.85 674.55C518.17 671.67 522.73 671.4 526.62 673.68C526.62 673.68 530.93 675.9 536.97 681.23C543.01 686.55 553 699.36 553 699.36L537.09 729.83C522.86 725.25 509.57 720.17 500.84 712.65L500.83 712.64Z"></path>
<path stroke-linejoin="round" stroke-linecap="round" stroke-width="2" stroke="black" d="M519.02 706.179L508.17 699.649"></path>
<path stroke-linejoin="round" stroke-linecap="round" stroke-width="2" stroke="black" d="M524.05 690.59L517.53 685.51"></path>
<path stroke-linejoin="round" stroke-linecap="round" stroke-width="2" stroke="black" fill="#EDFF36" d="M520.67 722.29C520.67 748.51 544.8 766.11 574.57 766.11C604.34 766.11 628.47 748.51 628.47 722.29C628.47 696.07 604.34 678.1 574.57 678.1C544.8 678.1 520.67 696.08 520.67 722.29Z"></path>
<path fill="#EDFF36" d="M628.38 719.67L627.16 662.08C627.16 647.96 615.71 636.51 601.59 636.51C587.47 636.51 576.02 647.96 576.02 662.08V702.1"></path>
<path stroke-linejoin="round" stroke-linecap="round" stroke-width="2" stroke="black" d="M628.38 719.67L627.16 662.08C627.16 647.96 615.71 636.51 601.59 636.51C587.47 636.51 576.02 647.96 576.02 662.08V702.1"></path>
<path stroke-linejoin="round" stroke-linecap="round" stroke-width="2" stroke="black" fill="white" d="M601.426 665.042C602.346 658.93 598.917 653.348 593.767 652.573C588.617 651.798 583.696 656.123 582.776 662.234C581.857 668.346 585.286 673.928 590.436 674.703C595.586 675.479 600.506 671.153 601.426 665.042Z"></path>
<path stroke-linejoin="round" stroke-linecap="round" stroke-width="2" stroke="black" fill="black" d="M592.12 663.059L588.7 660.519C589.68 658.849 591.29 657.849 592.92 658.089C595.27 658.439 596.8 661.239 596.34 664.339C595.87 667.439 593.59 669.659 591.23 669.309C589.51 669.049 588.23 667.489 587.85 665.459L592.12 663.059Z"></path>
<path fill="#EDFF36" d="M538.42 718.61C538.2 718.94 535.45 722.5 534.54 723.66C531.13 728.03 530.31 733.43 532.2 737.05C534.36 741.19 541.02 743.22 544.78 740.45L548.06 735.41L544.78 740.45C542.23 744.36 543.34 749.59 547.25 752.14C551.16 754.69 556.39 753.58 558.94 749.67L560.97 746.76C560.81 751.42 564.47 755.33 569.13 755.48C573.07 755.61 575.74 752.72 577.52 749.4C578.74 747.13 582.56 739.24 582.56 739.24"></path>
<path stroke-linejoin="round" stroke-linecap="round" stroke-width="2" stroke="black" d="M538.42 718.61C538.2 718.94 535.45 722.5 534.54 723.66C531.13 728.03 530.31 733.43 532.2 737.05C534.36 741.19 541.02 743.22 544.78 740.45L548.06 735.41L544.78 740.45C542.23 744.36 543.34 749.59 547.25 752.14C551.16 754.69 556.39 753.58 558.94 749.67L560.97 746.76C560.81 751.42 564.47 755.33 569.13 755.48C573.07 755.61 575.74 752.72 577.52 749.4C578.74 747.13 582.56 739.24 582.56 739.24"></path>
<path stroke-linejoin="round" stroke-linecap="round" stroke-width="2" stroke="black" d="M564.19 740.61L560.97 746.76"></path>
<path stroke-linejoin="round" stroke-linecap="round" stroke-width="2" stroke="black" d="M550.53 731.44L548.07 735.41"></path>
<path stroke-linejoin="round" stroke-linecap="round" stroke-width="2" stroke="black" d="M569.69 730.62L564.19 740.61"></path>
<path stroke-linejoin="round" stroke-linecap="round" stroke-width="2" stroke="black" d="M542.71 712.87L538.42 718.61"></path>
<path stroke-linejoin="round" stroke-linecap="round" stroke-width="2" stroke="black" d="M555.45 723.75L550.53 731.44"></path>
<path stroke-linejoin="round" stroke-linecap="round" stroke-width="2" stroke="black" d="M584.42 735.41L581.31 741.8"></path>
<path stroke-linejoin="round" stroke-linecap="round" stroke-width="2" stroke="black" fill="#F96612" d="M626.4 674.88L605.25 683.03C603.2 688.33 605.74 693.01 607.51 694.21H607.53C607.71 694.34 607.9 694.45 608.1 694.55L622.58 703C629.57 707.6 649.85 711.54 652.41 694.33L626.41 674.88H626.4Z"></path>
<path stroke-linejoin="round" stroke-linecap="round" stroke-width="2" stroke="black" fill="#F96612" d="M623.39 668.01C621.41 666.78 618.62 666.9 615.53 668.69C610.77 671.44 606.72 677.29 605.25 683.03L625.41 694.67L629.14 696.82C635.13 700.28 645.81 705.17 650.43 700.08C652.33 697.99 652.44 695.98 652.44 693.74V693.72C652.44 689.22 650.36 683.77 644.99 680.62L623.38 668.01H623.39Z"></path>
<path stroke-linejoin="round" stroke-width="2" stroke="black" d="M381.49 349.02H434.84"></path>
<path stroke-linejoin="round" stroke-width="2" stroke="black" d="M426.62 340.67C426.59 345.98 428.22 349.02 434.84 349.02"></path>
<path stroke-linejoin="round" stroke-width="2" stroke="black" d="M426.62 357.37C426.59 352.06 428.22 349.02 434.84 349.02"></path>
<path stroke-linejoin="round" stroke-linecap="round" stroke-width="2" stroke="black" fill="black" d="M603.31 496.47H454.82V509.28H603.31V496.47Z"></path>
<path stroke-linejoin="round" stroke-linecap="round" stroke-width="2" stroke="black" fill="#45E464" d="M608.71 570.77C610.4 558.14 619.15 545.75 632.1 542.91C643.08 540.48 654.65 545.43 663.07 552.05C664.51 553.15 663.33 555.53 661.59 555.04C652.18 552.93 641.93 549.83 633.07 553.17C628.86 554.79 625.64 557.66 622.41 560.91C619 564.33 615.75 568.35 611.72 572.24C610.6 573.44 608.46 572.36 608.72 570.76L608.71 570.77Z"></path>
<path stroke-linejoin="round" stroke-linecap="round" stroke-width="2" stroke="black" fill="#45E464" d="M568.78 547.91C572.69 538.78 583.51 531.3 593.71 535.54C607.7 541.3 614.08 562.11 611.88 575.81C611.59 577.58 608.99 577.67 608.57 575.95C605.89 566.36 601.39 555.76 594.78 548.63C587.38 540.6 579.25 545.9 571.24 550.17C569.8 551.05 568.02 549.42 568.77 547.92L568.78 547.91Z"></path>
<path stroke-linejoin="round" stroke-linecap="round" stroke-width="2" stroke="black" fill="#45E464" d="M609.03 574.619C615.11 562.789 629.949 556.019 642.989 560.309C655.669 564.269 664.389 575.169 668.379 587.079C668.969 588.799 666.669 590.109 665.489 588.739C661.639 584.389 657.789 580.339 653.579 577.039C645.539 570.519 636.149 567.579 626.239 570.609C621.099 572.029 616.379 574.559 611.379 576.989C609.899 577.809 608.2 576.079 609.02 574.619H609.03Z"></path>
<path stroke-linejoin="round" stroke-linecap="round" stroke-width="2" stroke="black" fill="#45E464" d="M608.95 576.899C601.58 573.349 594.29 567.169 586.79 564.639C578.84 561.879 572.8 566.189 567.21 572.289C566.06 573.639 563.78 572.409 564.26 570.719C569.41 551.089 589.76 549.759 603.21 562.419C606.88 565.879 609.78 569.949 611.47 574.709C612.05 576.189 610.32 577.679 608.95 576.899Z"></path>
<path stroke-linejoin="round" stroke-linecap="round" stroke-width="2" stroke="black" fill="#45E464" d="M609.33 577.229C604.65 576.579 600.58 575.379 596.84 574.859C593.71 574.429 590.55 574.069 587.99 575.499C582.37 578.999 581.7 588.749 580.86 595.599C580.72 597.329 578.23 597.699 577.57 596.119C574.63 589.439 573.57 581.209 576.68 574.039C580.37 565.039 590.9 562.099 599.42 565.579C604.16 567.389 608.1 570.359 611.09 574.379C612.06 575.619 610.86 577.529 609.34 577.219L609.33 577.229Z"></path>
<path stroke-linejoin="round" stroke-linecap="round" stroke-width="2" stroke="black" fill="#45E464" d="M609.64 574.239C613.68 570.739 620.06 571.369 624.54 573.559C633.35 577.959 638.77 586.999 640.25 596.389C640.9 601.039 640.37 605.879 638.46 610.019C638.06 610.889 637.03 611.269 636.17 610.869C635.59 610.599 635.23 610.059 635.17 609.459C634.16 601.789 631.45 595.079 626.91 589.129C623.67 585.029 620 581.679 615.63 579.129C614.16 578.299 612.49 577.669 610.49 577.329C609.06 577.109 608.54 575.149 609.65 574.239H609.64Z"></path>
<path stroke-linejoin="round" stroke-linecap="round" stroke-width="2" stroke="black" fill="#45E464" d="M610.63 577.42C608.37 579.92 607.45 582.17 606.24 585.1C603.84 590.89 602.06 597.42 600.64 603.78C599.84 607.17 599.08 610.64 598.12 614.24C597.73 615.85 595.37 615.98 594.8 614.44C590.37 603 591.35 582.68 603 575.6C604.94 574.39 611.49 572.46 611.28 576.3C611.21 576.76 610.95 577.11 610.64 577.42H610.63Z"></path>
<path stroke-linejoin="round" stroke-linecap="round" stroke-width="2" stroke="black" fill="#EEFF36" d="M123.88 110.65C129.12 108.49 133.21 102.22 134.62 94.1904L136.95 80.9004L139.28 94.1904C140.69 102.22 144.78 108.49 150.02 110.65L158.69 114.23L150.02 117.81C144.78 119.97 140.69 126.24 139.28 134.27L136.95 147.56L134.62 134.27C133.21 126.24 129.12 119.97 123.88 117.81L115.21 114.23L123.88 110.65Z"></path>
<path stroke-linejoin="round" stroke-linecap="round" stroke-width="2" stroke="black" fill="#FFA155" d="M212.49 66.9102L227.97 69.4602L212.49 72.0102C208.89 72.6002 206.06 75.4302 205.47 79.0302L202.92 94.5102L200.37 79.0302C199.78 75.4302 196.95 72.6002 193.35 72.0102L177.87 69.4602L193.35 66.9102C196.95 66.3202 199.78 63.4902 200.37 59.8902L202.92 44.4102L205.47 59.8902C206.06 63.4902 208.89 66.3202 212.49 66.9102Z"></path>
<path stroke-linejoin="round" stroke-linecap="round" stroke-width="2" stroke="black" fill="#FFB7EA" d="M979.77 229.24L995.58 231.84L979.77 234.44C976.09 235.05 973.21 237.93 972.6 241.61L970 257.42L967.4 241.61C966.79 237.93 963.91 235.05 960.23 234.44L944.42 231.84L960.23 229.24C963.91 228.63 966.79 225.75 967.4 222.07L970 206.26L972.6 222.07C973.21 225.75 976.09 228.63 979.77 229.24Z"></path>
<path stroke-linejoin="round" stroke-linecap="round" stroke-width="2" stroke="black" fill="#EDFF36" d="M951.19 427.1C947.41 425.77 944.45 421.92 943.43 417L941.74 408.84L940.05 417C939.03 421.93 936.08 425.78 932.29 427.1L926.03 429.3L932.29 431.5C936.07 432.83 939.03 436.68 940.05 441.6L941.74 449.76L943.43 441.6C944.45 436.67 947.4 432.82 951.19 431.5L957.45 429.3L951.19 427.1Z"></path>
<path stroke-linejoin="round" stroke-linecap="round" stroke-width="2" stroke="black" d="M264.2 785.18C286.08 784.06 293.43 771.1 299.77 761.05C304.42 753.67 306.76 743.07 300.63 736.85C296.04 732.19 287.74 732.26 282.84 736.59C277.94 740.92 276.71 748.66 279.51 754.58C282.31 760.5 288.65 764.38 295.17 764.82C302.7 765.33 310.05 761.62 315.43 756.32C321.46 750.37 325.24 742.3 326.29 733.91"></path>
<path stroke-linejoin="round" stroke-linecap="round" stroke-width="2" stroke="black" d="M237.96 799.66C249.85 799.47 260.54 791.44 266.89 781.39C271.54 774.01 273.88 763.41 267.75 757.19C263.16 752.53 254.86 752.6 249.96 756.93C245.06 761.26 243.83 769 246.63 774.92C249.43 780.83 255.83 785.19 264.21 785.19"></path>
<path stroke-linejoin="round" stroke-linecap="round" stroke-width="2" stroke="black" d="M913.67 771.06C900.1 768.19 896.79 759.36 893.82 752.44C891.64 747.36 891.23 740.5 895.68 737.22C899.01 734.76 904.2 735.63 906.83 738.82C909.47 742.02 909.46 746.98 907.13 750.4C904.79 753.82 900.44 755.62 896.32 755.25C891.56 754.82 887.33 751.77 884.49 747.93C881.31 743.61 879.75 738.19 879.92 732.83"></path>
<path stroke-linejoin="round" stroke-linecap="round" stroke-width="2" stroke="black" d="M928.65 782.72C921.23 781.42 915.34 775.34 912.37 768.42C910.19 763.34 909.78 756.48 914.23 753.2C917.56 750.74 922.75 751.61 925.38 754.8C928.02 758 928.01 762.96 925.68 766.38C923.34 769.8 918.91 771.89 913.66 771.06"></path>
<path stroke-linejoin="round" stroke-linecap="round" stroke-width="2" stroke="black" fill="white" d="M182.989 184.801C184.064 181.3 183.557 178.039 181.857 177.517C180.157 176.995 177.908 179.41 176.833 182.91C175.758 186.41 176.265 189.671 177.965 190.193C179.665 190.715 181.915 188.301 182.989 184.801Z"></path>
<path stroke-linejoin="round" stroke-linecap="round" stroke-width="2" stroke="black" fill="white" d="M197.201 184.797C198.275 181.296 197.769 178.036 196.069 177.513C194.369 176.991 192.119 179.406 191.044 182.906C189.969 186.407 190.476 189.667 192.176 190.189C193.876 190.711 196.126 188.297 197.201 184.797Z"></path>
<path stroke-linejoin="round" stroke-linecap="round" stroke-width="2" stroke="black" d="M171.74 197.35C169.36 214.09 196.29 214.2 199.01 197.35"></path>
<path stroke-linejoin="round" stroke-linecap="round" stroke-width="2" stroke="black" fill="black" d="M178.82 188.8C180.019 188.8 180.99 187.828 180.99 186.63C180.99 185.432 180.019 184.46 178.82 184.46C177.622 184.46 176.65 185.432 176.65 186.63C176.65 187.828 177.622 188.8 178.82 188.8Z"></path>
<path stroke-linejoin="round" stroke-linecap="round" stroke-width="2" stroke="black" fill="black" d="M192.97 188.8C194.014 188.8 194.86 187.953 194.86 186.91C194.86 185.866 194.014 185.02 192.97 185.02C191.926 185.02 191.08 185.866 191.08 186.91C191.08 187.953 191.926 188.8 192.97 188.8Z"></path>
<path stroke-linejoin="round" stroke-linecap="round" stroke-width="2" stroke="black" fill="#CBEE2D" d="M142.485 769.225C151.123 766.539 155.594 756.217 152.471 746.171C149.347 736.124 139.812 730.157 131.174 732.842C122.535 735.528 118.064 745.85 121.188 755.896C124.311 765.943 133.846 771.91 142.485 769.225Z"></path>
<path stroke-linejoin="round" stroke-linecap="round" stroke-width="2" stroke="black" fill="#CBEE2D" d="M151.2 762.149C153.77 757.759 154.41 751.869 152.59 746.199C151.95 744.269 151.2 742.559 150.13 740.949C146.17 739.449 143.39 738.809 143.81 744.269C144.35 750.159 145.95 758.509 151.2 762.149Z"></path>
<path stroke-linejoin="round" stroke-linecap="round" stroke-width="2" stroke="black" fill="#CBEE2D" d="M142.53 769.21C133.86 771.89 124.33 765.889 121.23 755.939C120.8 754.439 120.48 753.049 120.37 751.549C119.51 743.089 123.9 735.169 131.29 732.919C139.96 730.239 149.49 736.239 152.59 746.189C155.69 756.149 151.2 766.53 142.53 769.2V769.21Z"></path>
<path fill="#CBEE2D" d="M144.78 735.6C144.78 735.49 144.89 735.39 144.89 735.28C146.6 730.57 150.03 726.93 154.74 725.43C163.41 722.75 172.94 728.75 176.04 738.7C179.14 748.76 174.65 759.04 165.98 761.71C157.31 764.39 147.78 758.39 144.68 748.44C144.25 746.94 143.93 745.55 143.82 744.05"></path>
<path stroke-linejoin="round" stroke-linecap="round" stroke-width="2" stroke="black" d="M144.78 735.6C144.78 735.49 144.89 735.39 144.89 735.28C146.6 730.57 150.03 726.93 154.74 725.43C163.41 722.75 172.94 728.75 176.04 738.7C179.14 748.76 174.65 759.04 165.98 761.71C157.31 764.39 147.78 758.39 144.68 748.44C144.25 746.94 143.93 745.55 143.82 744.05"></path>
<path fill="#CBEE2D" d="M168.33 728.32C168.33 728.21 168.44 728.11 168.44 728C170.15 723.29 173.58 719.65 178.29 718.15C186.96 715.47 196.49 721.47 199.59 731.42C202.69 741.48 198.2 751.76 189.53 754.43C180.86 757.11 171.33 751.11 168.23 741.16C167.8 739.66 167.48 738.27 167.37 736.77"></path>
<path stroke-linejoin="round" stroke-linecap="round" stroke-width="2" stroke="black" d="M168.33 728.32C168.33 728.21 168.44 728.11 168.44 728C170.15 723.29 173.58 719.65 178.29 718.15C186.96 715.47 196.49 721.47 199.59 731.42C202.69 741.48 198.2 751.76 189.53 754.43C180.86 757.11 171.33 751.11 168.23 741.16C167.8 739.66 167.48 738.27 167.37 736.77"></path>
</g>
<defs>
<clipPath id="clip0_1_27929">
<rect fill="white" height="871.95" width="1070.23"></rect>
</clipPath>
</defs>
</svg>
